<svg width="28" height="28" viewBox="0 0 28 28" fill="none" xmlns="http://www.w3.org/2000/svg">
<rect width="28" height="28" fill="white"/>
<path d="M23.6004 14V26H4.40039V14" stroke="black" stroke-width="2.5" stroke-linecap="round"/>
<path d="M26 8H2V14H26V8Z" stroke="black" stroke-width="2.5" stroke-linecap="round"/>
<path d="M14 26V8" stroke="black" stroke-width="2.5" stroke-linecap="round"/>
<path d="M13.9996 8H8.59961C7.80396 8 7.0409 7.68393 6.47829 7.12132C5.91568 6.55871 5.59961 5.79565 5.59961 5C5.59961 4.20435 5.91568 3.44129 6.47829 2.87868C7.0409 2.31607 7.80396 2 8.59961 2C12.7996 2 13.9996 8 13.9996 8Z" stroke="black" stroke-width="2.5" stroke-linecap="round"/>
<path d="M14 8H19.4C20.1957 8 20.9587 7.68393 21.5213 7.12132C22.0839 6.55871 22.4 5.79565 22.4 5C22.4 4.20435 22.0839 3.44129 21.5213 2.87868C20.9587 2.31607 20.1957 2 19.4 2C15.2 2 14 8 14 8Z" stroke="black" stroke-width="2.5" stroke-linecap="round"/>
</svg>
